<?xml version="1.0" standalone="no"?>
<!DOCTYPE svg PUBLIC "-//W3C//DTD SVG 20010904//EN"
 "http://www.w3.org/TR/2001/REC-SVG-20010904/DTD/svg10.dtd">
<svg version="1.0" xmlns="http://www.w3.org/2000/svg"
 width="928.000000pt" height="269.000000pt" viewBox="0 0 928.000000 269.000000"
 preserveAspectRatio="xMidYMid meet">

<g transform="translate(0.000000,269.000000) scale(0.100000,-0.100000)"
fill="#000000" stroke="none">
<path d="M6491 2611 c-2 -72 -80 -156 -157 -168 -37 -6 -57 -23 -27 -23 11 0
42 -12 71 -26 53 -26 82 -62 105 -130 l13 -37 13 46 c21 75 97 137 169 137 6
0 12 5 12 10 0 6 -8 10 -17 10 -31 0 -103 42 -125 73 -12 17 -30 54 -39 81
-12 34 -18 43 -18 27z"/>
<path d="M4445 2478 c-56 -30 -162 -139 -224 -232 -67 -99 -160 -291 -201
-416 -65 -195 -79 -368 -37 -450 30 -61 75 -85 153 -84 76 1 157 37 227 102
42 40 47 42 47 23 0 -13 13 -35 28 -51 64 -63 161 -45 263 49 l63 58 28 -38
c45 -63 97 -84 203 -84 84 0 96 3 170 38 64 31 96 55 166 126 99 100 111 123
79 155 -21 21 -21 21 -36 1 -47 -64 -144 -149 -207 -180 -86 -43 -142 -47
-184 -11 -25 21 -28 31 -27 80 0 64 5 72 32 57 36 -19 109 -13 160 13 129 66
218 260 156 343 -75 100 -234 87 -360 -29 -86 -79 -174 -235 -174 -307 0 -24
-15 -46 -69 -102 -71 -73 -103 -86 -109 -42 -5 33 43 166 103 289 30 61 55
122 55 136 0 25 -28 57 -65 75 -31 15 -80 23 -93 14 -14 -8 -133 -294 -156
-375 -31 -106 -186 -234 -250 -205 -24 11 -46 57 -46 96 0 6 35 47 78 90 166
167 369 517 408 703 17 83 7 140 -29 165 -31 21 -104 18 -152 -7z m35 -259
c-43 -131 -195 -400 -284 -504 -34 -40 -32 -22 9 102 61 183 187 424 264 506
l26 29 3 -35 c2 -19 -6 -63 -18 -98z m726 -304 c17 -44 -109 -215 -169 -230
-45 -12 -53 6 -27 60 57 118 177 222 196 170z"/>
<path d="M2417 2397 c-76 -116 -246 -541 -317 -795 -25 -87 -38 -114 -87 -180
-235 -313 -524 -477 -662 -375 -44 34 -66 90 -70 183 -6 143 29 286 115 470
103 219 298 452 435 519 76 37 107 37 128 0 31 -55 -35 -230 -129 -347 -60
-75 -57 -92 19 -92 64 1 121 29 180 91 147 154 179 388 66 477 -136 107 -455
-23 -711 -290 -189 -198 -314 -413 -382 -658 -35 -130 -37 -316 -4 -401 29
-73 82 -133 146 -167 46 -25 61 -27 156 -27 95 1 113 4 195 36 50 19 124 57
165 84 82 55 271 232 315 295 15 22 30 39 32 37 2 -2 -4 -35 -12 -72 -9 -37
-15 -81 -13 -98 4 -40 45 -70 99 -71 l41 -1 18 65 c24 89 41 133 85 220 41 84
128 217 176 270 37 41 37 42 -22 -125 -29 -83 -44 -142 -47 -192 -5 -72 -4
-73 31 -108 29 -29 42 -35 76 -35 53 0 122 35 185 94 27 25 50 45 51 43 24
-58 38 -76 68 -90 89 -43 197 1 287 115 l37 46 12 -37 c16 -55 44 -76 100 -75
56 1 115 30 172 84 23 22 43 40 45 40 1 0 4 -12 6 -27 4 -37 75 -75 133 -71
40 3 40 3 43 48 7 129 62 283 136 385 l36 50 0 -37 c0 -45 32 -86 76 -94 51
-10 84 33 122 158 43 141 42 157 -12 178 -47 18 -108 -20 -185 -115 -36 -44
-62 -72 -58 -62 4 10 16 49 28 88 l21 70 -23 25 c-27 29 -81 47 -128 42 -34
-3 -35 -4 -48 -68 -27 -134 -93 -344 -125 -398 -42 -69 -132 -167 -147 -158
-33 21 4 166 95 369 34 75 42 102 34 116 -13 26 -81 51 -136 51 -37 0 -47 -4
-51 -20 -6 -24 -10 -24 -43 -5 -70 40 -188 3 -283 -90 -95 -92 -159 -198 -197
-322 -19 -62 -29 -79 -82 -129 -58 -55 -61 -57 -75 -38 -24 33 7 141 95 327
50 106 54 120 42 142 -16 30 -67 55 -111 55 -65 0 -152 -75 -259 -224 -18 -25
-35 -44 -37 -42 -6 6 64 209 120 346 75 184 126 292 176 375 51 84 47 100 -30
139 -65 32 -92 33 -112 3z m738 -656 c15 -48 -72 -258 -155 -374 -127 -176
-182 -53 -75 168 49 100 89 153 148 196 46 34 73 37 82 10z"/>
<path d="M5529 2378 c-1 -2 -3 -27 -4 -56 -1 -36 -12 -72 -35 -116 -18 -36
-29 -70 -25 -76 13 -20 84 -4 124 28 136 109 133 222 -5 222 -30 0 -55 -1 -55
-2z"/>
<path d="M4765 2331 c-47 -29 -82 -72 -96 -119 -24 -82 33 -146 109 -121 70
23 155 138 144 195 -11 58 -97 83 -157 45z"/>
<path d="M7195 2281 c-67 -24 -213 -98 -304 -155 -89 -55 -172 -84 -273 -95
-88 -10 -112 -21 -138 -64 -15 -24 -20 -50 -20 -110 0 -68 -5 -88 -41 -172
-57 -136 -89 -268 -89 -375 0 -82 -3 -94 -40 -172 -66 -138 -85 -255 -47 -286
6 -5 80 -28 162 -50 610 -165 1318 -304 1625 -319 146 -7 433 11 582 36 208
36 417 116 472 181 34 41 33 69 -8 184 -70 197 -90 212 -356 280 -233 59 -437
130 -475 166 -35 32 -67 50 -91 50 -9 0 -32 14 -51 30 -18 17 -42 30 -53 30
-11 0 -45 23 -75 50 -30 28 -62 50 -70 50 -8 0 -37 20 -64 44 -27 24 -58 47
-68 50 -10 3 -31 30 -45 60 -20 39 -38 60 -68 77 -23 13 -49 36 -58 51 -14 24
-14 27 1 43 9 9 17 19 17 23 -1 27 -92 227 -109 238 -12 9 -21 22 -21 30 0 32
-51 121 -75 132 -38 18 -162 13 -220 -7z m93 -38 c23 -34 92 -158 92 -166 0
-3 -15 -9 -34 -12 -28 -6 -41 -1 -79 28 -25 19 -60 37 -79 41 -48 9 -134 -8
-222 -43 -42 -17 -109 -44 -148 -60 -40 -16 -91 -32 -113 -35 -29 -4 -21 0 30
17 85 28 113 43 231 118 51 32 119 67 153 79 70 23 81 24 81 8 0 -14 30 -48
41 -48 5 0 1 18 -8 41 -13 35 -14 42 -2 50 23 15 37 10 57 -18z m190 -165 c-5
-13 -222 -116 -247 -117 -29 -2 6 20 100 63 52 23 103 47 114 54 26 15 38 15
33 0z m-220 -189 c3 -17 -23 -33 -39 -23 -5 3 -9 14 -9 25 0 15 6 20 22 17 13
-2 24 -10 26 -19z m318 2 c-6 -10 -91 -51 -103 -51 -7 1 95 58 105 60 2 0 1
-4 -2 -9z m-34 -112 c4 -68 -11 -80 -48 -34 l-29 35 -49 -15 c-99 -30 -87 -14
22 31 42 18 82 33 89 33 6 1 12 -19 15 -50z m125 -51 c5 -7 17 -32 25 -55 18
-47 8 -65 -21 -39 -15 14 -29 14 -99 6 -44 -6 -99 -17 -122 -25 -43 -15 -65
-12 -74 10 -6 18 19 45 42 45 28 1 165 20 183 25 9 3 19 15 22 25 6 22 30 26
44 8z m-1123 -138 c230 -105 308 -116 465 -61 148 52 191 38 403 -122 262
-197 287 -248 178 -367 -27 -29 -63 -80 -81 -113 -37 -70 5 -72 -370 19 l-266
65 -13 42 c-18 61 -54 129 -88 165 -17 18 -26 32 -22 32 5 0 76 -29 158 -64
273 -117 356 -140 427 -116 41 13 75 59 75 100 -1 41 -36 106 -86 160 -26 27
-50 50 -54 50 -4 0 -7 -17 -8 -37 -2 -52 -38 -83 -96 -83 -91 0 -332 84 -596
207 -165 77 -152 65 -132 118 9 25 17 45 18 45 1 0 41 -18 88 -40z m1262 -15
c31 -31 24 -45 -25 -45 -54 0 -139 -17 -184 -36 -35 -16 -38 -16 -56 0 -39 36
-1 59 116 72 35 4 71 13 80 20 26 19 41 17 69 -11z m124 -96 c38 -38 31 -45
-52 -54 -32 -4 -80 -18 -106 -31 -55 -28 -65 -29 -82 -8 -21 25 15 51 95 68
49 10 74 21 84 35 18 28 24 27 61 -10z m138 -85 c39 -19 41 -42 5 -49 -80 -16
-150 -38 -165 -52 -22 -20 -52 -13 -56 14 -4 26 34 49 98 59 24 4 46 15 53 25
14 23 25 24 65 3z m130 -66 c19 -19 15 -24 -40 -56 -29 -16 -63 -42 -76 -57
-24 -28 -39 -29 -56 -3 -13 21 5 43 53 68 20 10 45 27 55 39 21 24 46 27 64 9z
m197 -104 c55 -19 171 -55 258 -79 87 -23 164 -48 170 -54 9 -9 6 -17 -13 -32
-61 -47 -187 -64 -385 -52 -174 11 -241 3 -343 -42 -84 -37 -107 -39 -118 -10
-14 36 7 66 76 111 38 24 78 56 87 70 55 77 110 122 153 124 8 0 60 -16 115
-36z m-1725 -184 c294 -82 640 -168 745 -184 229 -36 366 -56 465 -68 135 -17
580 -17 725 0 132 15 300 54 355 82 52 26 56 26 69 -11 20 -59 16 -65 -61 -93
-157 -56 -356 -94 -536 -103 -109 -5 -124 -8 -134 -26 -10 -19 -18 -20 -222
-14 -320 9 -554 40 -1031 138 -262 54 -302 67 -522 175 l-213 104 11 27 c22
59 33 63 107 42 37 -11 146 -42 242 -69z m2249 16 l23 -13 -35 -22 c-90 -55
-262 -84 -393 -65 -55 8 -51 9 76 15 149 7 228 29 270 74 27 29 27 29 59 11z"/>
<path d="M5855 2162 c-158 -55 -295 -203 -295 -320 0 -73 24 -108 127 -184
107 -79 124 -104 99 -142 -41 -63 -151 -51 -233 27 -29 27 -35 29 -57 19 -49
-22 -46 -90 4 -141 80 -79 257 -95 383 -33 85 42 120 87 125 161 5 72 -16 104
-122 186 -43 33 -84 71 -92 85 -20 37 -17 83 9 121 25 37 133 117 144 106 3
-4 -4 -41 -17 -83 -26 -81 -22 -106 17 -112 48 -7 163 138 163 206 0 97 -127
148 -255 104z"/>
<path d="M4757 1239 c-582 -32 -1231 -138 -2447 -402 -652 -142 -812 -162
-1255 -162 -268 1 -349 4 -430 18 -124 22 -279 62 -359 94 l-61 23 25 -24 c48
-46 186 -138 274 -183 114 -57 266 -107 409 -134 196 -37 586 -38 797 -2 65
11 26 -5 -50 -21 -113 -23 -323 -46 -426 -46 -97 0 -284 16 -348 30 -76 17
-20 -10 74 -34 150 -40 273 -56 429 -56 256 0 454 41 921 190 771 246 1324
381 1900 464 547 79 1121 88 1651 25 102 -13 193 -20 202 -16 25 9 57 67 57
103 0 48 -25 62 -136 79 -403 60 -801 77 -1227 54z"/>
<path d="M4620 985 c-314 -25 -340 -28 -336 -32 2 -2 116 1 252 6 431 19 915
-4 1358 -64 104 -14 195 -24 203 -21 16 7 17 27 1 49 -15 20 -143 38 -436 62
-224 18 -816 18 -1042 0z"/>
<path d="M4233 943 c9 -2 23 -2 30 0 6 3 -1 5 -18 5 -16 0 -22 -2 -12 -5z"/>
<path d="M3199 680 c-63 -19 -109 -73 -109 -129 0 -34 47 -79 103 -96 29 -10
59 -24 67 -32 37 -35 -65 -58 -134 -29 l-33 14 -22 -39 -23 -39 39 -17 c46
-19 154 -21 205 -4 71 24 113 103 84 158 -14 28 -33 39 -129 77 -82 33 -9 82
77 54 l46 -15 20 34 c11 19 18 38 15 43 -14 23 -151 37 -206 20z"/>
<path d="M6168 675 c-63 -20 -98 -63 -98 -120 0 -36 5 -48 30 -68 16 -14 52
-33 80 -42 57 -19 67 -29 49 -51 -10 -12 -26 -15 -69 -11 -30 3 -64 8 -75 12
-15 4 -24 -1 -38 -24 -9 -16 -17 -34 -17 -39 0 -17 71 -35 135 -35 80 0 127
17 165 59 59 68 30 136 -73 170 -68 21 -85 37 -67 59 11 13 27 16 69 13 31 -2
63 -7 72 -11 11 -6 20 2 32 29 10 20 17 38 15 39 -37 30 -145 41 -210 20z"/>
<path d="M3509 668 c0 -7 -13 -92 -28 -188 l-27 -175 49 -3 c30 -2 53 1 57 8
4 7 13 52 20 101 6 49 15 89 19 89 3 0 33 -45 65 -100 l59 -100 53 0 c36 0 54
4 54 13 0 6 12 84 25 172 14 88 25 168 25 178 0 14 -9 17 -53 17 l-54 0 -11
-77 c-7 -43 -12 -88 -12 -100 0 -27 -15 -30 -24 -5 -4 9 -30 54 -59 100 l-52
82 -52 0 c-35 0 -53 -4 -54 -12z"/>
<path d="M3961 518 c-13 -90 -25 -175 -28 -190 l-5 -28 150 0 150 0 6 31 c3
17 6 35 6 40 0 5 -40 9 -88 9 -49 0 -91 2 -94 5 -2 3 -3 18 0 35 l4 30 78 0
c83 0 90 4 90 56 0 23 -2 24 -75 24 l-75 0 0 35 0 35 95 0 c94 0 95 0 95 24 0
13 3 31 6 40 5 14 -11 16 -143 16 l-149 0 -23 -162z"/>
<path d="M4487 673 c-2 -5 -50 -88 -106 -185 -55 -97 -101 -179 -101 -182 0
-3 26 -6 59 -6 56 0 59 1 71 30 12 30 13 30 91 30 l80 0 6 -30 c5 -29 7 -30
65 -30 52 0 59 2 54 18 -3 9 -21 78 -41 152 -20 74 -40 152 -46 173 l-10 37
-59 0 c-32 0 -61 -3 -63 -7z m61 -164 c17 -70 17 -69 -33 -69 -25 0 -45 2 -45
5 0 11 55 115 60 115 4 0 12 -23 18 -51z"/>
<path d="M4820 673 c0 -5 -11 -84 -25 -177 -14 -93 -25 -176 -25 -183 0 -9 16
-13 54 -13 60 0 55 -9 72 113 3 26 9 47 13 47 3 0 30 -36 59 -80 l52 -80 66 0
66 0 -66 95 c-36 52 -66 98 -66 102 0 4 39 47 87 95 l88 88 -65 0 -66 0 -69
-70 c-67 -68 -89 -84 -80 -57 3 6 8 38 13 70 l9 57 -59 0 c-32 0 -58 -3 -58
-7z"/>
<path d="M5266 653 c-3 -16 -14 -91 -26 -168 -11 -77 -23 -150 -26 -162 l-4
-23 150 0 150 0 6 28 c3 15 7 33 10 40 2 9 -20 12 -91 12 -87 0 -95 2 -95 19
0 46 8 51 91 51 69 0 79 2 79 18 0 9 3 27 6 40 6 21 5 22 -76 22 -81 0 -82 1
-76 23 3 12 6 28 6 35 0 9 25 12 89 12 84 0 89 1 95 23 15 58 19 57 -138 57
l-144 0 -6 -27z"/>
<path d="M5656 658 c-6 -24 -56 -344 -56 -353 0 -3 25 -5 55 -5 49 0 55 2 59
23 20 96 22 102 40 102 11 0 29 -21 49 -60 l32 -60 63 -3 c34 -2 62 0 62 4 0
3 -16 33 -36 66 l-36 59 42 37 c35 31 43 45 47 84 11 97 -39 128 -206 128
-107 0 -111 -1 -115 -22z m198 -74 c9 -8 16 -21 16 -28 0 -30 -71 -63 -109
-51 -17 5 -19 40 -6 83 6 18 80 15 99 -4z"/>
</g>
</svg>
